<svg xmlns="http://www.w3.org/2000/svg" viewBox="0 0 120.22 105.97"><defs fill="#000000"><style>.cls-1{fill:#8dff8d;}</style></defs><g id="Layer_2" data-name="Layer 2"><g id="Layer_6" data-name="Layer 6"><path class="cls-1" d="M55.86,75.68A11,11,0,0,1,44.92,83c-8.5,0-13.18-5.83-13.18-15V51.12a.68.68,0,0,1,.72-.72h49a.68.68,0,0,1,.72.72V68.55c0,8.78-4.89,15-13.68,15-5.9,0-10.08-2.74-12.17-7.92C56.15,75.46,56,75.46,55.86,75.68ZM36.2,55.8V68.05c0,6,3.6,9.93,9.15,9.93,5.33,0,8.71-3.89,8.71-9.93V55.8a.3.3,0,0,0-.29-.28H36.49A.31.31,0,0,0,36.2,55.8ZM77.61,68.55V55.8a.31.31,0,0,0-.29-.28H58.67a.3.3,0,0,0-.29.28V68.26c0,6.27,3.82,10.23,9.65,10.23S77.61,74.6,77.61,68.55Z" fill="#000000"/><path class="cls-1" d="M56.29,7.92C58.38,2.74,62.56,0,68.46,0c8.79,0,13.68,6.26,13.68,15.05V32.47a.68.68,0,0,1-.72.72h-49a.68.68,0,0,1-.72-.72V15.55c0-9.14,4.68-15,13.18-15A11,11,0,0,1,55.86,7.92C56,8.14,56.15,8.14,56.29,7.92ZM36.49,28.08H53.77a.3.3,0,0,0,.29-.29V15.55c0-6.05-3.38-9.93-8.71-9.93-5.55,0-9.15,3.88-9.15,9.93V27.79A.31.31,0,0,0,36.49,28.08ZM68,5.11c-5.83,0-9.65,4-9.65,10.23V27.79a.3.3,0,0,0,.29.29H77.32a.31.31,0,0,0,.29-.29V15.05C77.61,9,73.86,5.11,68,5.11Z" fill="#000000"/><path class="cls-1" d="M19.86,40.72a11,11,0,0,1-7.35-10.95c0-8.49,5.84-13.17,15-13.17H44.41a.68.68,0,0,1,.72.72v49a.68.68,0,0,1-.72.72H27c-8.79,0-15-4.89-15-13.68,0-5.9,2.73-10.08,7.92-12.17C20.07,41,20.07,40.86,19.86,40.72ZM27,62.47H39.73a.31.31,0,0,0,.29-.29V43.53a.3.3,0,0,0-.29-.29H27.27c-6.26,0-10.22,3.82-10.22,9.65S20.94,62.47,27,62.47ZM39.73,21.06H27.49c-6,0-9.94,3.6-9.94,9.15,0,5.32,3.89,8.71,9.94,8.71H39.73a.3.3,0,0,0,.29-.29V21.35A.31.31,0,0,0,39.73,21.06Z" fill="#000000"/><path class="cls-1" d="M93.27,41.15c5.18,2.09,7.92,6.27,7.92,12.17,0,8.79-6.27,13.68-15,13.68H68.71a.68.68,0,0,1-.72-.72v-49a.68.68,0,0,1,.72-.72H85.63c9.15,0,15,4.68,15,13.17,0,5.41-2.66,9.08-7.34,11C93.05,40.86,93.05,41,93.27,41.15ZM73.1,21.35V38.63a.31.31,0,0,0,.29.29H85.63c6.05,0,9.94-3.39,9.94-8.71,0-5.55-3.89-9.15-9.94-9.15H73.39A.32.32,0,0,0,73.1,21.35Zm23,31.54c0-5.83-4-9.65-10.23-9.65H73.39a.31.31,0,0,0-.29.29V62.18a.32.32,0,0,0,.29.29H86.14C92.19,62.47,96.08,58.72,96.08,52.89Z" fill="#000000"/><path class="cls-1" d="M7,99.32a3.06,3.06,0,0,1,1.84,3c0,2.36-1.79,3.5-4.13,3.5H.22a.21.21,0,0,1-.22-.22V93.4a.21.21,0,0,1,.22-.22H4.61c2.54,0,4.09,1.07,4.09,3.41A2.67,2.67,0,0,1,7,99.22C7,99.25,7,99.29,7,99.32ZM2.09,95.07V98.4c0,.06,0,.1.09.1H4.61c1.28,0,2.05-.65,2.05-1.73S5.89,95,4.61,95H2.18A.08.08,0,0,0,2.09,95.07Zm4.7,7a1.83,1.83,0,0,0-2.07-1.88H2.18a.08.08,0,0,0-.09.09v3.57a.08.08,0,0,0,.09.09H4.75A1.82,1.82,0,0,0,6.79,102.1Z" fill="#000000"/><path class="cls-1" d="M11.2,105.57V93.4a.21.21,0,0,1,.21-.22h1.66a.21.21,0,0,1,.21.22v12.17a.21.21,0,0,1-.21.22H11.41A.21.21,0,0,1,11.2,105.57Z" fill="#000000"/><path class="cls-1" d="M15.61,101.66V97.31c0-2.58,1.8-4.27,4.51-4.27s4.49,1.71,4.49,4v.14a.21.21,0,0,1-.22.22H22.75a.21.21,0,0,1-.21-.22v-.09a2.22,2.22,0,0,0-2.42-2.23,2.28,2.28,0,0,0-2.43,2.39v4.51a2.34,2.34,0,0,0,2.52,2.39A2.06,2.06,0,0,0,22.54,102v-1.12a.09.09,0,0,0-.09-.09H20.23a.21.21,0,0,1-.21-.22V99.25a.21.21,0,0,1,.21-.21h4.16a.21.21,0,0,1,.22.21v2.31c0,2.8-1.78,4.37-4.49,4.37S15.61,104.22,15.61,101.66Z" fill="#000000"/><path class="cls-1" d="M37.59,99.32a3.05,3.05,0,0,1,1.83,3c0,2.36-1.78,3.5-4.12,3.5H30.76a.21.21,0,0,1-.21-.22V93.4a.21.21,0,0,1,.21-.22h4.39c2.54,0,4.09,1.07,4.09,3.41a2.67,2.67,0,0,1-1.65,2.63C37.51,99.25,37.51,99.29,37.59,99.32Zm-5-4.25V98.4a.09.09,0,0,0,.09.1h2.43c1.28,0,2.06-.65,2.06-1.73S36.43,95,35.15,95H32.72A.09.09,0,0,0,32.63,95.07Zm4.7,7a1.83,1.83,0,0,0-2.07-1.88H32.72a.09.09,0,0,0-.09.09v3.57a.09.09,0,0,0,.09.09H35.3A1.81,1.81,0,0,0,37.33,102.1Z" fill="#000000"/><path class="cls-1" d="M41.42,101.54V97.43A4.24,4.24,0,0,1,46,93a4.24,4.24,0,0,1,4.59,4.39v4.11A4.26,4.26,0,0,1,46,106,4.25,4.25,0,0,1,41.42,101.54Zm7.07.07v-4.2a2.49,2.49,0,1,0-5,0v4.2a2.49,2.49,0,1,0,5,0Z" fill="#000000"/><path class="cls-1" d="M52.6,101.66V97.31c0-2.58,1.8-4.27,4.51-4.27s4.49,1.71,4.49,4v.14a.21.21,0,0,1-.22.22H59.74a.21.21,0,0,1-.21-.22v-.09a2.22,2.22,0,0,0-2.42-2.23,2.28,2.28,0,0,0-2.43,2.39v4.51a2.34,2.34,0,0,0,2.52,2.39A2.06,2.06,0,0,0,59.53,102v-1.12a.09.09,0,0,0-.09-.09H57.22a.21.21,0,0,1-.21-.22V99.25a.21.21,0,0,1,.21-.21h4.16a.21.21,0,0,1,.22.21v2.31c0,2.8-1.78,4.37-4.49,4.37S52.6,104.22,52.6,101.66Z" fill="#000000"/><path class="cls-1" d="M72.25,95H66.11a.09.09,0,0,0-.09.09v3.37a.08.08,0,0,0,.09.09h4.13a.21.21,0,0,1,.21.22v1.37a.21.21,0,0,1-.21.21H66.11a.09.09,0,0,0-.09.09v3.48a.09.09,0,0,0,.09.09h6.14a.21.21,0,0,1,.22.21v1.37a.21.21,0,0,1-.22.22h-8.1a.2.2,0,0,1-.21-.22V93.4a.2.2,0,0,1,.21-.22h8.1a.21.21,0,0,1,.22.22v1.37A.21.21,0,0,1,72.25,95Z" fill="#000000"/><path class="cls-1" d="M77.88,101.7V97.25c0-2.54,1.81-4.21,4.52-4.21s4.51,1.62,4.51,4a.21.21,0,0,1-.22.22L85,97.4c-.14,0-.21-.06-.21-.2a2.43,2.43,0,0,0-4.85,0v4.59a2.43,2.43,0,0,0,4.85,0,.18.18,0,0,1,.21-.2l1.66.07a.2.2,0,0,1,.22.18c0,2.47-1.8,4.09-4.51,4.09S77.88,104.24,77.88,101.7Z" fill="#000000"/><path class="cls-1" d="M88.83,101.54V97.43a4.58,4.58,0,0,1,9.16,0v4.11a4.58,4.58,0,0,1-9.16,0Zm7.08.07v-4.2a2.5,2.5,0,1,0-5,0v4.2a2.5,2.5,0,1,0,5,0Z" fill="#000000"/><path class="cls-1" d="M107.14,105.63l-2.38-5.19a.14.14,0,0,0-.11-.07h-2.16a.08.08,0,0,0-.09.09v5.11a.21.21,0,0,1-.21.22h-1.66a.21.21,0,0,1-.22-.22V93.4a.21.21,0,0,1,.22-.22h5a3.51,3.51,0,0,1,3.73,3.68,3.29,3.29,0,0,1-2.42,3.33c-.05,0-.07,0-.05.11l2.54,5.24c.07.16,0,.25-.16.25h-1.73A.24.24,0,0,1,107.14,105.63ZM102.4,95.07v3.59a.09.09,0,0,0,.09.09h2.7a1.89,1.89,0,1,0,0-3.77h-2.7A.09.09,0,0,0,102.4,95.07Z" fill="#000000"/><path class="cls-1" d="M120.22,96.93a3.6,3.6,0,0,1-3.92,3.71h-2.88a.08.08,0,0,0-.09.09v4.84a.21.21,0,0,1-.22.22h-1.66a.21.21,0,0,1-.21-.22V93.38a.21.21,0,0,1,.21-.21h5A3.58,3.58,0,0,1,120.22,96.93Zm-2.09,0a1.91,1.91,0,0,0-2-2h-2.68a.08.08,0,0,0-.09.09v3.79a.08.08,0,0,0,.09.09h2.68A1.89,1.89,0,0,0,118.13,97Z" fill="#000000"/></g></g></svg>